<svg xmlns="http://www.w3.org/2000/svg" viewBox="0 0 32 32">
  <rect width="32" height="32" rx="6" fill="#0a0a0a"/>
  <!-- { -->
  <path fill="#3b82f6" d="
    M13 4C10 4 8 6 8 9v4c0 1.5-1 2.5-2.5 3C7 16.5 8 17.5 8 19v4c0 3 2 5 5 5v-2
    c-1.5 0-3-.8-3-3v-4c0-2-1.2-3.2-2.5-3.5v-.5C6.8 14.7 8 13.5 8 11.5V9c0-2 1-3 3-3z"/>
  <!-- } -->
  <path fill="#3b82f6" d="
    M19 4v2c2 0 3 1 3 3v2.5c0 2 1.2 3.2 2.5 3.5v.5C23.2 15.8 22 17 22 19v4
    c0 2.2-1.5 3-3 3v2c3 0 5-2 5-5v-4c0-1.5 1-2.5 2.5-3C25 15.5 24 14.5 24 13V9
    c0-3-2-5-5-5z"/>
</svg>
